<svg width="164" height="37" viewBox="0 0 164 37" fill="none" xmlns="http://www.w3.org/2000/svg">
<g clip-path="url(#clip0_0_3628)">
<path fill-rule="evenodd" clip-rule="evenodd" d="M38.2595 3.06239C37.3194 2.59024 36.1561 2.45109 34.8561 2.68757C34.0546 2.83396 33.2 3.12352 32.3138 3.56511C31.463 3.99061 30.6484 4.52389 29.8766 5.14244L33.0075 6.71574C33.7793 6.0972 34.5939 5.56391 35.4438 5.13922C36.33 4.69683 37.1836 4.40726 37.9861 4.26087C39.2861 4.02439 40.4494 4.16354 41.3895 4.6357L38.2595 3.06239Z" fill="#F0A72E"/>
<mask id="mask0_0_3628" style="mask-type:luminance" maskUnits="userSpaceOnUse" x="0" y="0" width="31" height="35">
<path fill-rule="evenodd" clip-rule="evenodd" d="M0 0.609169H30.3026V34.2347H0V0.609169Z" fill="white"/>
</mask>
<g mask="url(#mask0_0_3628)">
<path fill-rule="evenodd" clip-rule="evenodd" d="M27.1726 1.17282C26.0865 0.626667 24.7409 0.466602 23.2382 0.74008C22.3102 0.908993 21.3217 1.2436 20.2961 1.75597C18.5898 2.60858 16.9876 3.84728 15.5983 5.31199C13.0421 8.00736 11.2065 11.4677 10.762 14.6891C9.99487 14.8387 9.17285 15.1226 8.32945 15.5441C6.85838 16.2785 5.47751 17.345 4.28075 18.6063C1.71614 21.3064 -0.00971918 24.8971 -0.000420372 28.0228C0.00794856 30.3023 0.9369 31.9069 2.4368 32.6606L5.56678 34.2347C4.06595 33.4803 3.137 31.8756 3.12956 29.5961C3.11933 26.4704 4.84612 22.8798 7.4098 20.1796C8.60749 18.9183 9.98743 17.8518 11.4594 17.1174C12.3019 16.6959 13.1248 16.412 13.8911 16.2624C14.3356 13.041 16.1721 9.58067 18.7283 6.8853C20.1176 5.42058 21.7188 4.18188 23.4261 3.32928C24.4508 2.81691 25.4393 2.4823 26.3673 2.31338C27.8709 2.0391 29.2155 2.19997 30.3025 2.74612L27.1726 1.17282Z" fill="#F0A72E"/>
</g>
<path fill-rule="evenodd" clip-rule="evenodd" d="M23.4258 3.32944C28.2668 0.911568 32.2895 2.44465 33.0073 6.71574C33.7791 6.0972 34.5937 5.56392 35.4436 5.13922C40.0577 2.83476 43.8125 4.68557 43.8274 9.27115C43.8423 13.8575 40.1116 19.4462 35.4975 21.7506L11.5131 33.729C6.89254 36.0366 3.14419 34.1826 3.12932 29.5962C3.11444 25.0098 6.83768 19.4252 11.4583 17.1176C12.3026 16.6961 13.1246 16.4122 13.8908 16.2625C14.5771 11.2901 18.5774 5.75052 23.4258 3.32944Z" fill="#FFCA00"/>
<path fill-rule="evenodd" clip-rule="evenodd" d="M62.7052 5.31441C61.7651 4.84225 60.6018 4.7031 59.3019 4.93958C58.4994 5.08597 57.6457 5.37554 56.7586 5.81712C55.9087 6.24182 55.0942 6.77591 54.3224 7.39445L57.4523 8.96775C58.2241 8.34921 59.0387 7.81512 59.8896 7.39123C60.7748 6.94804 61.6294 6.65928 62.4309 6.51288C63.7318 6.27641 64.8942 6.41556 65.8343 6.88771L62.7052 5.31441Z" fill="#D43E3E"/>
<path fill-rule="evenodd" clip-rule="evenodd" d="M51.6138 3.41977C50.5277 2.87361 49.1821 2.71274 47.6795 2.98622C46.7514 3.15514 45.7648 3.48974 44.741 4.00131C43.0403 4.8507 41.4427 6.08618 40.0563 7.54848C37.4982 10.2463 35.6589 13.713 35.2135 16.9376C34.4398 17.0905 33.6243 17.3712 32.7744 17.7959C31.3052 18.5294 29.9262 19.596 28.7294 20.8564C26.1648 23.5566 24.4352 27.1488 24.4454 30.2745C24.4529 32.5532 25.3837 34.1563 26.8827 34.9108L30.0126 36.4833C28.5127 35.7296 27.5819 34.1265 27.5745 31.8478C27.5643 28.7221 29.2948 25.1299 31.8585 22.4297C33.0561 21.1685 34.4352 20.1027 35.9034 19.3692C36.7552 18.9445 37.5698 18.6638 38.3434 18.5109C38.7889 15.2855 40.6282 11.8196 43.1863 9.12179C44.5727 7.65948 46.1703 6.42401 47.871 5.57381C48.8939 5.06305 49.8814 4.72844 50.8085 4.55953C52.3121 4.28605 53.6567 4.44692 54.7438 4.99307L51.6138 3.41977Z" fill="#D43E3E"/>
<path fill-rule="evenodd" clip-rule="evenodd" d="M47.8706 5.57397C52.7116 3.1569 56.7352 4.69643 57.4521 8.96751C58.2239 8.34897 59.0385 7.81569 59.8893 7.39099C64.5034 5.08653 68.2573 6.93734 68.2722 11.5229C68.2871 16.1093 64.5573 21.6979 59.9433 24.0024L35.9579 35.9807C31.3448 38.2852 27.5899 36.4344 27.5751 31.848C27.5602 27.2616 31.2899 21.673 35.904 19.3685C36.7548 18.9446 37.5703 18.6639 38.3431 18.5103C39.0293 13.5386 43.0297 7.99184 47.8706 5.57397Z" fill="#FA7564"/>
<path d="M81.9397 26V12.92H84.5597L86.8797 19.32C87.0264 19.7333 87.1664 20.16 87.2997 20.6C87.4464 21.0267 87.5864 21.4533 87.7197 21.88H87.7997C87.9464 21.4533 88.0864 21.0267 88.2197 20.6C88.3531 20.16 88.4864 19.7333 88.6197 19.32L90.8797 12.92H93.5197V26H91.3797V20.02C91.3797 19.6067 91.3931 19.16 91.4197 18.68C91.4597 18.1867 91.4997 17.6933 91.5397 17.2C91.5931 16.7067 91.6397 16.26 91.6797 15.86H91.5997L90.5397 18.9L88.3997 24.78H87.0197L84.8597 18.9L83.8197 15.86H83.7397C83.7797 16.26 83.8197 16.7067 83.8597 17.2C83.9131 17.6933 83.9531 18.1867 83.9797 18.68C84.0197 19.16 84.0397 19.6067 84.0397 20.02V26H81.9397ZM98.6723 26.24C97.8189 26.24 97.1189 25.9733 96.5723 25.44C96.0389 24.9067 95.7723 24.2133 95.7723 23.36C95.7723 22.3067 96.2323 21.4933 97.1523 20.92C98.0723 20.3333 99.5389 19.9333 101.552 19.72C101.539 19.2 101.399 18.7533 101.132 18.38C100.879 17.9933 100.419 17.8 99.7523 17.8C99.2723 17.8 98.7989 17.8933 98.3323 18.08C97.8789 18.2667 97.4323 18.4933 96.9923 18.76L96.1523 17.22C96.6989 16.8733 97.3123 16.5733 97.9923 16.32C98.6856 16.0667 99.4189 15.94 100.192 15.94C101.419 15.94 102.332 16.3067 102.932 17.04C103.546 17.76 103.852 18.8067 103.852 20.18V26H101.952L101.792 24.92H101.712C101.272 25.2933 100.799 25.6067 100.292 25.86C99.7989 26.1133 99.2589 26.24 98.6723 26.24ZM99.4123 24.44C99.8123 24.44 100.172 24.3467 100.492 24.16C100.826 23.96 101.179 23.6933 101.552 23.36V21.16C100.219 21.3333 99.2923 21.5933 98.7723 21.94C98.2523 22.2733 97.9923 22.6867 97.9923 23.18C97.9923 23.62 98.1256 23.94 98.3923 24.14C98.6589 24.34 98.9989 24.44 99.4123 24.44ZM106.255 26V16.18H108.155L108.315 17.92H108.395C108.742 17.28 109.162 16.7933 109.655 16.46C110.148 16.1133 110.655 15.94 111.175 15.94C111.642 15.94 112.015 16.0067 112.295 16.14L111.895 18.14C111.722 18.0867 111.562 18.0467 111.415 18.02C111.268 17.9933 111.088 17.98 110.875 17.98C110.488 17.98 110.082 18.1333 109.655 18.44C109.228 18.7333 108.862 19.2533 108.555 20V26H106.255ZM116.826 26.24C115.693 26.24 114.886 25.9133 114.406 25.26C113.939 24.5933 113.706 23.7333 113.706 22.68V18H112.306V16.28L113.826 16.18L114.106 13.5H116.026V16.18H118.526V18H116.026V22.68C116.026 23.8267 116.486 24.4 117.406 24.4C117.579 24.4 117.759 24.38 117.946 24.34C118.133 24.2867 118.293 24.2333 118.426 24.18L118.826 25.88C118.559 25.9733 118.253 26.0533 117.906 26.12C117.573 26.2 117.213 26.24 116.826 26.24ZM122.193 26.24C121.34 26.24 120.64 25.9733 120.093 25.44C119.56 24.9067 119.293 24.2133 119.293 23.36C119.293 22.3067 119.753 21.4933 120.673 20.92C121.593 20.3333 123.06 19.9333 125.073 19.72C125.06 19.2 124.92 18.7533 124.653 18.38C124.4 17.9933 123.94 17.8 123.273 17.8C122.793 17.8 122.32 17.8933 121.853 18.08C121.4 18.2667 120.953 18.4933 120.513 18.76L119.673 17.22C120.22 16.8733 120.833 16.5733 121.513 16.32C122.207 16.0667 122.94 15.94 123.713 15.94C124.94 15.94 125.853 16.3067 126.453 17.04C127.067 17.76 127.373 18.8067 127.373 20.18V26H125.473L125.313 24.92H125.233C124.793 25.2933 124.32 25.6067 123.813 25.86C123.32 26.1133 122.78 26.24 122.193 26.24ZM122.933 24.44C123.333 24.44 123.693 24.3467 124.013 24.16C124.347 23.96 124.7 23.6933 125.073 23.36V21.16C123.74 21.3333 122.813 21.5933 122.293 21.94C121.773 22.2733 121.513 22.6867 121.513 23.18C121.513 23.62 121.647 23.94 121.913 24.14C122.18 24.34 122.52 24.44 122.933 24.44ZM134.876 26.24C133.876 26.24 133.003 26.04 132.256 25.64C131.509 25.24 130.929 24.6 130.516 23.72C130.116 22.84 129.916 21.6867 129.916 20.26V12.92H132.236V20.44C132.236 21.3867 132.343 22.14 132.556 22.7C132.783 23.2467 133.096 23.64 133.496 23.88C133.896 24.1067 134.356 24.22 134.876 24.22C135.409 24.22 135.876 24.1067 136.276 23.88C136.689 23.64 137.009 23.2467 137.236 22.7C137.476 22.14 137.596 21.3867 137.596 20.44V12.92H139.816V20.26C139.816 21.6867 139.616 22.84 139.216 23.72C138.816 24.6 138.243 25.24 137.496 25.64C136.763 26.04 135.889 26.24 134.876 26.24ZM142.732 26V12.92H146.852C147.825 12.92 148.692 13.0467 149.452 13.3C150.212 13.5533 150.812 13.9733 151.252 14.56C151.692 15.1467 151.912 15.9467 151.912 16.96C151.912 17.92 151.692 18.7133 151.252 19.34C150.812 19.9667 150.218 20.4333 149.472 20.74C148.725 21.0467 147.878 21.2 146.932 21.2H145.052V26H142.732ZM145.052 19.34H146.752C148.672 19.34 149.632 18.5467 149.632 16.96C149.632 16.1333 149.378 15.5667 148.872 15.26C148.378 14.94 147.645 14.78 146.672 14.78H145.052V19.34Z" fill="white"/>
</g>
<defs>
<clipPath id="clip0_0_3628">
<rect width="164" height="37" fill="white"/>
</clipPath>
</defs>
</svg>
